# This file uses centimeters as units for non-parametric coordinates.

mtllib Cloud_03.mtl
g default
v -1.385029 0.210950 2.323974
v -1.180471 -0.569508 2.424540
v -0.562911 -0.586463 2.673462
v -0.518936 -0.524317 3.541832
v -0.461670 -0.090505 3.959467
v -1.140587 -0.064988 2.992152
v 0.230303 -0.556752 2.364294
v 0.670476 -0.503896 2.584012
v 1.009070 -0.169817 2.290490
v 0.720441 0.109922 2.960680
v 0.223477 -0.148186 3.943166
v 0.209577 -0.435673 3.591489
v -0.625153 0.688308 2.319905
v -1.053362 0.740957 2.247662
v -0.470050 0.908581 2.789186
v 0.864785 0.444917 1.708450
v 0.303649 0.730208 1.927794
v 0.317097 0.802835 2.670536
v -0.999806 -0.080246 -2.532863
v -1.646174 0.011331 -1.927449
v -1.898789 -0.101118 -0.981921
v -1.442074 0.751837 -0.964462
v -0.616871 1.036597 -0.621315
v -0.969283 0.760131 -1.706781
v 1.540410 0.094064 -0.488861
v 1.299890 -0.160917 -1.617461
v 0.347181 0.004085 -2.262579
v 0.645250 0.788199 -1.765520
v 0.565593 1.569079 -0.906101
v 1.401142 0.908971 -0.471620
v -0.618419 -0.637035 -0.633544
v -1.589752 -0.447283 -0.779168
v -0.682697 -0.447346 -1.864056
v 1.554033 -0.540420 -0.457950
v 0.416241 -0.644416 -0.589792
v 0.627534 -0.534816 -2.061945
v -0.918669 -0.562975 3.308268
v 0.580607 -0.367080 2.982145
v -0.976100 0.637861 2.692229
v 0.704270 0.600240 2.390605
v -1.672101 0.661627 -1.834789
v 0.999394 0.488306 -1.383473
v -1.364100 -0.531383 -1.368958
v 1.232038 -0.471231 -1.824144
v 0.398857 1.537856 0.593982
v -0.640635 1.156396 0.780541
v -1.219317 0.799052 0.606538
v -1.215408 0.060396 0.624717
v -1.155539 -0.443941 0.996368
v -0.878638 -0.588405 0.568964
v 0.486323 -0.646974 0.613102
v 1.366948 -0.544160 0.585499
v 1.556172 0.141635 1.042286
v 1.167049 0.900483 0.835975
vt 0.324204 0.124727
vt 0.375000 0.952352
vt 0.327352 -0.000000
vt 0.445437 0.946297
vt 0.438635 -0.000000
vt 0.438635 1.000000
vt 0.446529 0.117255
vt 0.378792 0.123534
vt 0.554563 0.946153
vt 0.672648 -0.000000
vt 0.625000 0.952352
vt 0.675801 0.124640
vt 0.621234 0.123066
vt 0.553610 0.114783
vt 0.561365 1.000000
vt 0.561365 -0.000000
vt 0.446622 0.296294
vt 0.327352 0.250000
vt 0.375000 0.297648
vt 0.444176 0.231325
vt 0.625000 0.297648
vt 0.672648 0.250000
vt 0.553507 0.294527
vt 0.556184 0.222184
vt 0.447176 0.624780
vt 0.125000 0.125000
vt 0.375000 0.625000
vt 0.176561 0.124977
vt 0.375000 0.452352
vt 0.172648 0.250000
vt 0.446583 0.452576
vt 0.444074 0.516180
vt 0.823440 0.124970
vt 0.625000 0.625000
vt 0.875000 0.125000
vt 0.552827 0.624768
vt 0.555935 0.524175
vt 0.553440 0.454083
vt 0.827352 0.250000
vt 0.625000 0.452352
vt 0.446470 0.796078
vt 0.172648 -0.000000
vt 0.375000 0.797648
vt 0.444045 0.733227
vt 0.625000 0.797648
vt 0.827352 -0.000000
vt 0.553530 0.794398
vt 0.555955 0.725186
vt 0.375000 1.000000
vt 0.375000 0.000000
vt 0.625000 0.000000
vt 0.625000 1.000000
vt 0.375000 0.250000
vt 0.625000 0.250000
vt 0.125000 0.250000
vt 0.375000 0.500000
vt 0.625000 0.500000
vt 0.875000 0.250000
vt 0.125000 0.000000
vt 0.375000 0.750000
vt 0.625000 0.750000
vt 0.875000 0.000000
vt 0.553472 0.377153
vt 0.446602 0.377224
vt 0.247239 0.250000
vt 0.375000 0.377761
vt 0.247748 0.124857
vt 0.375000 0.872239
vt 0.247239 -0.000000
vt 0.445972 0.868507
vt 0.554028 0.867567
vt 0.752761 -0.000000
vt 0.625000 0.872239
vt 0.752255 0.124811
vt 0.625000 0.377761
vt 0.752761 0.250000
vn -0.043106 -0.999043 0.007389
vn -0.043106 -0.999043 0.007389
vn -0.043106 -0.999043 0.007389
vn 0.060790 -0.996332 0.060219
vn 0.060790 -0.996332 0.060219
vn 0.060790 -0.996332 0.060219
vn 0.181339 0.835433 0.518814
vn 0.181339 0.835433 0.518814
vn 0.181339 0.835433 0.518814
vn -0.285661 0.916075 0.281432
vn -0.285661 0.916075 0.281432
vn -0.285661 0.916075 0.281432
vn -0.029605 -0.999547 0.005364
vn -0.029605 -0.999547 0.005364
vn -0.029605 -0.999547 0.005364
vn -0.557932 -0.825791 -0.082345
vn -0.557932 -0.825791 -0.082345
vn -0.557932 -0.825791 -0.082345
vn -0.965308 -0.258104 -0.039544
vn -0.965308 -0.258104 -0.039544
vn -0.965308 -0.258104 -0.039544
vn -0.980768 -0.177013 -0.082218
vn -0.980768 -0.177013 -0.082218
vn -0.980768 -0.177014 -0.082218
vn -0.040912 -0.690159 0.722501
vn -0.040912 -0.690159 0.722501
vn -0.040912 -0.690159 0.722501
vn 0.051202 -0.774199 0.630867
vn 0.051202 -0.774200 0.630867
vn 0.051202 -0.774199 0.630867
vn 0.116161 -0.991098 0.065047
vn 0.116161 -0.991098 0.065047
vn 0.116161 -0.991098 0.065047
vn 0.075817 -0.992178 0.099172
vn 0.075817 -0.992178 0.099172
vn 0.075817 -0.992178 0.099172
vn 0.766019 -0.616540 0.181915
vn 0.766019 -0.616540 0.181915
vn 0.766019 -0.616540 0.181915
vn 0.846983 -0.436155 0.303956
vn 0.846982 -0.436155 0.303956
vn 0.846982 -0.436155 0.303956
vn 0.093183 -0.994264 0.052506
vn 0.093183 -0.994264 0.052506
vn 0.093183 -0.994264 0.052506
vn 0.117803 -0.990688 0.068263
vn 0.117803 -0.990688 0.068263
vn 0.117803 -0.990688 0.068263
vn -0.848811 0.512432 -0.130130
vn -0.848811 0.512432 -0.130130
vn -0.848811 0.512432 -0.130130
vn -0.994932 -0.002791 0.100512
vn -0.994932 -0.002791 0.100512
vn -0.994932 -0.002791 0.100512
vn 0.118143 0.992726 0.023195
vn 0.118143 0.992726 0.023195
vn 0.118143 0.992726 0.023195
vn -0.561729 0.789947 0.245855
vn -0.561729 0.789947 0.245855
vn -0.561729 0.789947 0.245856
vn -0.194507 0.911113 -0.363374
vn -0.194507 0.911113 -0.363374
vn -0.194507 0.911113 -0.363374
vn 0.117858 0.988108 -0.098753
vn 0.117858 0.988108 -0.098753
vn 0.117858 0.988108 -0.098753
vn 0.196127 0.746466 0.635864
vn 0.196127 0.746466 0.635864
vn 0.196127 0.746466 0.635864
vn 0.081259 0.795517 0.600458
vn 0.081259 0.795517 0.600458
vn 0.081259 0.795517 0.600458
vn 0.538849 0.703002 0.464144
vn 0.538849 0.703002 0.464144
vn 0.538849 0.703002 0.464144
vn 0.435972 0.726908 0.530597
vn 0.435972 0.726908 0.530597
vn 0.435972 0.726908 0.530597
vn 0.568045 0.632213 0.526908
vn 0.568045 0.632213 0.526908
vn 0.568045 0.632213 0.526908
vn 0.739500 0.501335 0.449224
vn 0.739500 0.501335 0.449224
vn 0.739500 0.501335 0.449224
vn 0.099196 0.695723 -0.711428
vn 0.099196 0.695723 -0.711428
vn 0.099196 0.695723 -0.711428
vn -0.039939 0.545759 -0.836990
vn -0.039939 0.545759 -0.836990
vn -0.039939 0.545759 -0.836990
vn -0.025568 0.970699 -0.238934
vn -0.025568 0.970699 -0.238934
vn -0.025568 0.970699 -0.238934
vn -0.440574 0.643713 -0.625722
vn -0.440574 0.643713 -0.625722
vn -0.440574 0.643713 -0.625722
vn -0.000610 -0.988330 -0.152324
vn -0.000610 -0.988331 -0.152324
vn -0.000610 -0.988330 -0.152324
vn -0.079190 -0.993203 -0.085309
vn -0.079190 -0.993203 -0.085309
vn -0.079190 -0.993203 -0.085309
vn -0.124791 -0.893543 -0.431286
vn -0.124791 -0.893543 -0.431286
vn -0.124791 -0.893543 -0.431286
vn 0.205470 -0.245788 -0.947296
vn 0.205470 -0.245788 -0.947296
vn 0.205470 -0.245788 -0.947296
vn -0.934800 -0.270365 0.230328
vn -0.934800 -0.270366 0.230328
vn -0.934800 -0.270366 0.230328
vn -0.937082 -0.209639 0.279157
vn -0.937082 -0.209639 0.279157
vn -0.937082 -0.209639 0.279157
vn -0.034536 -0.999248 0.017618
vn -0.034536 -0.999248 0.017618
vn -0.034536 -0.999248 0.017618
vn 0.056344 -0.996064 0.068431
vn 0.056344 -0.996064 0.068431
vn 0.056344 -0.996064 0.068431
vn -0.347315 -0.626175 0.698053
vn -0.347315 -0.626175 0.698053
vn -0.347315 -0.626175 0.698053
vn -0.818518 -0.000083 0.574481
vn -0.818518 -0.000083 0.574481
vn -0.818518 -0.000083 0.574481
vn 0.334432 -0.937298 0.098125
vn 0.334432 -0.937298 0.098125
vn 0.334432 -0.937298 0.098125
vn -0.043830 -0.947808 0.315815
vn -0.043830 -0.947808 0.315815
vn -0.043830 -0.947808 0.315815
vn 0.793940 -0.497119 0.350045
vn 0.793940 -0.497119 0.350045
vn 0.793940 -0.497119 0.350045
vn 0.855332 -0.229849 0.464303
vn 0.855332 -0.229849 0.464303
vn 0.855332 -0.229849 0.464303
vn 0.889751 -0.243458 0.386099
vn 0.889751 -0.243458 0.386099
vn 0.889751 -0.243458 0.386099
vn 0.752194 -0.524425 0.398977
vn 0.752194 -0.524425 0.398977
vn 0.752194 -0.524425 0.398977
vn -0.413025 0.869301 -0.271525
vn -0.413025 0.869301 -0.271525
vn -0.413025 0.869301 -0.271525
vn 0.084097 0.973815 0.211215
vn 0.084097 0.973815 0.211215
vn 0.084097 0.973815 0.211215
vn -0.800086 0.538685 0.263971
vn -0.800086 0.538685 0.263971
vn -0.800086 0.538685 0.263971
vn -0.805958 0.381701 0.452478
vn -0.805957 0.381701 0.452478
vn -0.805957 0.381701 0.452478
vn -0.744538 0.401755 0.533157
vn -0.744538 0.401755 0.533157
vn -0.744538 0.401755 0.533157
vn -0.468763 0.670146 0.575470
vn -0.468763 0.670146 0.575470
vn -0.468763 0.670146 0.575470
vn 0.909882 0.326943 0.255390
vn 0.909882 0.326943 0.255390
vn 0.909882 0.326943 0.255390
vn 0.926867 0.348840 0.138669
vn 0.926867 0.348840 0.138669
vn 0.926867 0.348840 0.138669
vn 0.416902 0.902583 -0.107414
vn 0.416902 0.902583 -0.107414
vn 0.416902 0.902583 -0.107414
vn 0.405982 0.908802 -0.096215
vn 0.405982 0.908802 -0.096215
vn 0.405982 0.908802 -0.096215
vn 0.653952 0.582162 0.483150
vn 0.653952 0.582162 0.483150
vn 0.653952 0.582162 0.483150
vn 0.652560 0.583531 0.483380
vn 0.652560 0.583531 0.483380
vn 0.652560 0.583531 0.483380
vn 0.031809 0.700073 -0.713363
vn 0.031809 0.700073 -0.713363
vn 0.031809 0.700073 -0.713363
vn -0.675678 0.077521 -0.733110
vn -0.675678 0.077521 -0.733110
vn -0.675678 0.077521 -0.733110
vn -0.966062 -0.001710 -0.258305
vn -0.966062 -0.001710 -0.258305
vn -0.966062 -0.001710 -0.258305
vn -0.868442 0.461289 0.181716
vn -0.868442 0.461289 0.181716
vn -0.868442 0.461289 0.181716
vn -0.321250 0.946902 -0.013241
vn -0.321250 0.946902 -0.013241
vn -0.321250 0.946902 -0.013241
vn -0.096828 0.971575 -0.216022
vn -0.096828 0.971576 -0.216022
vn -0.096828 0.971575 -0.216022
vn 0.874281 0.159117 -0.458601
vn 0.874281 0.159117 -0.458601
vn 0.874281 0.159117 -0.458601
vn 0.826257 0.485429 -0.285758
vn 0.826257 0.485429 -0.285758
vn 0.826257 0.485429 -0.285758
vn 0.544163 0.495799 -0.676808
vn 0.544163 0.495799 -0.676808
vn 0.544163 0.495799 -0.676808
vn 0.769534 0.106612 -0.629644
vn 0.769534 0.106612 -0.629644
vn 0.769534 0.106612 -0.629644
vn 0.798359 0.480667 -0.362743
vn 0.798359 0.480667 -0.362743
vn 0.798359 0.480667 -0.362743
vn 0.677614 0.507197 -0.532532
vn 0.677614 0.507197 -0.532532
vn 0.677614 0.507197 -0.532532
vn 0.010780 -0.988184 -0.152896
vn 0.010780 -0.988184 -0.152896
vn 0.010780 -0.988183 -0.152896
vn -0.200403 -0.977703 0.062741
vn -0.200403 -0.977703 0.062741
vn -0.200403 -0.977703 0.062741
vn -0.687133 -0.708263 -0.161900
vn -0.687133 -0.708263 -0.161900
vn -0.687133 -0.708263 -0.161900
vn -0.714203 -0.646712 -0.267725
vn -0.714203 -0.646712 -0.267725
vn -0.714203 -0.646712 -0.267725
vn -0.520324 -0.728679 -0.445298
vn -0.520324 -0.728679 -0.445298
vn -0.520324 -0.728679 -0.445298
vn -0.183555 -0.895844 -0.404686
vn -0.183555 -0.895844 -0.404686
vn -0.183555 -0.895844 -0.404686
vn 0.978095 -0.088321 -0.188491
vn 0.978095 -0.088321 -0.188491
vn 0.978095 -0.088321 -0.188491
vn 0.973396 0.009747 -0.228923
vn 0.973396 0.009747 -0.228923
vn 0.973396 0.009747 -0.228923
vn 0.099235 -0.992335 -0.073644
vn 0.099235 -0.992335 -0.073644
vn 0.099235 -0.992335 -0.073644
vn 0.126072 -0.990459 -0.055644
vn 0.126072 -0.990459 -0.055644
vn 0.126072 -0.990459 -0.055644
vn 0.375397 -0.145503 -0.915372
vn 0.375397 -0.145503 -0.915372
vn 0.375397 -0.145503 -0.915372
vn 0.564124 0.368719 -0.738790
vn 0.564124 0.368719 -0.738790
vn 0.564124 0.368719 -0.738790
vn -0.347461 0.937500 -0.019107
vn -0.347461 0.937500 -0.019107
vn -0.347461 0.937500 -0.019107
vn -0.425936 0.900827 -0.084203
vn -0.425936 0.900827 -0.084203
vn -0.425936 0.900827 -0.084203
vn -0.535714 0.842881 0.050628
vn -0.535714 0.842881 0.050628
vn -0.535714 0.842881 0.050628
vn -0.292712 0.952294 -0.086343
vn -0.292712 0.952294 -0.086343
vn -0.292713 0.952294 -0.086343
vn -0.920377 0.004752 0.391003
vn -0.920377 0.004752 0.391003
vn -0.920377 0.004752 0.391003
vn -0.877133 0.467404 0.110324
vn -0.877133 0.467404 0.110324
vn -0.877133 0.467404 0.110324
vn -0.969676 0.059557 0.237025
vn -0.969676 0.059557 0.237025
vn -0.969676 0.059557 0.237025
vn -0.789069 -0.479617 0.383845
vn -0.789069 -0.479617 0.383845
vn -0.789069 -0.479617 0.383845
vn -0.565468 -0.819932 -0.089207
vn -0.565468 -0.819932 -0.089207
vn -0.565468 -0.819932 -0.089207
vn -0.198764 -0.978748 0.050451
vn -0.198764 -0.978748 0.050451
vn -0.198764 -0.978748 0.050451
vn -0.008757 -0.999220 0.038514
vn -0.008757 -0.999220 0.038514
vn -0.008757 -0.999220 0.038514
vn -0.042881 -0.999080 0.000374
vn -0.042881 -0.999080 0.000374
vn -0.042881 -0.999080 0.000374
vn 0.116481 -0.993042 0.017325
vn 0.116481 -0.993042 0.017325
vn 0.116481 -0.993042 0.017325
vn 0.091879 -0.995742 -0.007470
vn 0.091879 -0.995742 -0.007470
vn 0.091879 -0.995742 -0.007470
vn 0.964266 -0.264930 -0.001696
vn 0.964266 -0.264930 -0.001696
vn 0.964266 -0.264930 -0.001696
vn 0.983851 0.029723 0.176506
vn 0.983851 0.029723 0.176506
vn 0.983851 0.029723 0.176506
vn 0.860753 0.484128 0.157240
vn 0.860753 0.484128 0.157240
vn 0.860753 0.484128 0.157240
vn 0.985538 0.168754 -0.015389
vn 0.985538 0.168754 -0.015389
vn 0.985538 0.168754 -0.015389
vn 0.620188 0.779816 0.085167
vn 0.620188 0.779816 0.085167
vn 0.620188 0.779816 0.085167
vn 0.580630 0.806813 0.109185
vn 0.580630 0.806813 0.109185
vn 0.580630 0.806813 0.109185
s off
g pCube3
usemtl initialShadingGroup
f 50/70/1 51/71/2 3/4/3
f 3/4/4 51/71/5 7/9/6
f 17/23/7 45/63/8 13/17/9
f 13/17/10 45/63/11 46/64/12
f 3/4/13 2/2/14 50/70/15
f 50/70/16 2/2/17 49/68/18
f 2/3/19 1/1/20 49/69/21
f 49/69/22 1/1/23 48/67/24
f 5/7/25 4/5/26 11/14/27
f 11/14/28 4/5/29 12/16/30
f 4/6/31 3/4/32 12/15/33
f 12/15/34 3/4/35 7/9/36
f 9/12/37 8/10/38 53/74/39
f 53/74/40 8/10/41 52/72/42
f 8/11/43 7/9/44 52/73/45
f 52/73/46 7/9/47 51/71/48
f 1/1/49 14/18/50 48/67/51
f 48/67/52 14/18/53 47/65/54
f 14/19/55 13/17/56 47/66/57
f 47/66/58 13/17/59 46/64/60
f 13/17/61 15/20/62 17/23/63
f 17/23/64 15/20/65 18/24/66
f 15/20/67 5/7/68 18/24/69
f 18/24/70 5/7/71 11/14/72
f 17/23/73 16/21/74 45/63/75
f 45/63/76 16/21/77 54/75/78
f 16/22/79 9/12/80 54/76/81
f 54/76/82 9/12/83 53/74/84
f 19/25/85 24/32/86 27/36/87
f 27/36/88 24/32/89 28/37/90
f 24/32/91 23/31/92 28/37/93
f 28/37/94 23/31/95 29/38/96
f 31/41/97 33/44/98 35/47/99
f 35/47/100 33/44/101 36/48/102
f 33/44/103 19/25/104 36/48/105
f 36/48/106 19/25/107 27/36/108
f 6/8/109 1/1/110 37/50/111
f 37/50/112 1/1/113 2/3/114
f 2/2/115 3/4/116 37/49/117
f 37/49/118 3/4/119 4/6/120
f 4/5/121 5/7/122 37/50/123
f 37/50/124 5/7/125 6/8/126
f 12/15/127 7/9/128 38/52/129
f 38/52/130 7/9/131 8/11/132
f 8/10/133 9/12/134 38/51/135
f 38/51/136 9/12/137 10/13/138
f 10/13/139 11/14/140 38/51/141
f 38/51/142 11/14/143 12/16/144
f 15/20/145 13/17/146 39/53/147
f 39/53/148 13/17/149 14/19/150
f 14/18/151 1/1/152 39/53/153
f 39/53/154 1/1/155 6/8/156
f 6/8/157 5/7/158 39/53/159
f 39/53/160 5/7/161 15/20/162
f 10/13/163 9/12/164 40/54/165
f 40/54/166 9/12/167 16/22/168
f 16/21/169 17/23/170 40/54/171
f 40/54/172 17/23/173 18/24/174
f 18/24/175 11/14/176 40/54/177
f 40/54/178 11/14/179 10/13/180
f 24/32/181 19/25/182 41/56/183
f 41/56/184 19/25/185 20/27/186
f 20/26/187 21/28/188 41/55/189
f 41/55/190 21/28/191 22/30/192
f 22/29/193 23/31/194 41/56/195
f 41/56/196 23/31/197 24/32/198
f 30/39/199 25/33/200 42/58/201
f 42/58/202 25/33/203 26/35/204
f 26/34/205 27/36/206 42/57/207
f 42/57/208 27/36/209 28/37/210
f 28/37/211 29/38/212 42/57/213
f 42/57/214 29/38/215 30/40/216
f 33/44/217 31/41/218 43/60/219
f 43/60/220 31/41/221 32/43/222
f 32/42/223 21/28/224 43/59/225
f 43/59/226 21/28/227 20/26/228
f 20/27/229 19/25/230 43/60/231
f 43/60/232 19/25/233 33/44/234
f 26/35/235 25/33/236 44/62/237
f 44/62/238 25/33/239 34/46/240
f 34/45/241 35/47/242 44/61/243
f 44/61/244 35/47/245 36/48/246
f 36/48/247 27/36/248 44/61/249
f 44/61/250 27/36/251 26/34/252
f 45/63/253 29/38/254 46/64/255
f 46/64/256 29/38/257 23/31/258
f 47/66/259 46/64/260 22/29/261
f 22/29/262 46/64/263 23/31/264
f 48/67/265 47/65/266 21/28/267
f 21/28/268 47/65/269 22/30/270
f 49/69/271 48/67/272 32/42/273
f 32/42/274 48/67/275 21/28/276
f 50/70/277 49/68/278 31/41/279
f 31/41/280 49/68/281 32/43/282
f 31/41/283 35/47/284 50/70/285
f 50/70/286 35/47/287 51/71/288
f 52/73/289 51/71/290 34/45/291
f 34/45/292 51/71/293 35/47/294
f 53/74/295 52/72/296 25/33/297
f 25/33/298 52/72/299 34/46/300
f 54/76/301 53/74/302 30/39/303
f 30/39/304 53/74/305 25/33/306
f 45/63/307 54/75/308 29/38/309
f 29/38/310 54/75/311 30/40/312
