# This file uses centimeters as units for non-parametric coordinates.

mtllib Earth_Moon_centered.mtl
g default
v -1.000000 1.000000 -1.000000
v -1.000000 -1.000000 -1.000000
v -2.000000 -1.000000 -1.000000
v -2.000000 1.000000 -1.000000
v 2.000000 1.000000 -2.000000
v 2.000000 0.000000 -2.000000
v -1.000000 0.000000 -2.000000
v -1.000000 1.000000 -2.000000
v 1.000000 0.000000 -2.000000
v 1.000000 -1.000000 -2.000000
v -1.000000 -1.000000 -2.000000
v 1.000000 -1.000000 -1.000000
v 1.000000 -2.000000 -1.000000
v -1.000000 -2.000000 -1.000000
v 1.000000 2.000000 -2.000000
v 1.000000 1.000000 -2.000000
v 0.000000 1.000000 -2.000000
v 0.000000 2.000000 -2.000000
v 0.000000 2.000000 -1.000000
v 0.000000 1.000000 -1.000000
v -1.000000 2.000000 -1.000000
v 2.000000 0.000000 -1.000000
v 2.000000 -1.000000 -1.000000
v 1.000000 0.000000 -1.000000
v 2.000000 2.000000 -1.000000
v 2.000000 1.000000 -1.000000
v 1.000000 1.000000 -1.000000
v 1.000000 2.000000 -1.000000
v -1.000000 2.000000 0.000000
v -1.000000 1.000000 0.000000
v -2.000000 1.000000 0.000000
v -2.000000 2.000000 0.000000
v 2.000000 -1.000000 0.000000
v 2.000000 -2.000000 0.000000
v 1.000000 -2.000000 0.000000
v 1.000000 -1.000000 0.000000
v -2.000000 1.000000 2.000000
v -2.000000 0.000000 2.000000
v 2.000000 0.000000 2.000000
v 2.000000 1.000000 2.000000
v -1.000000 0.000000 2.000000
v -1.000000 -1.000000 2.000000
v 2.000000 -1.000000 2.000000
v -1.000000 2.000000 2.000000
v -1.000000 1.000000 2.000000
v 2.000000 2.000000 2.000000
v -2.000000 0.000000 1.000000
v -2.000000 -1.000000 1.000000
v -1.000000 -1.000000 1.000000
v -1.000000 0.000000 1.000000
v -2.000000 2.000000 1.000000
v -2.000000 1.000000 1.000000
v -1.000000 1.000000 1.000000
v -1.000000 2.000000 1.000000
v -1.000000 -2.000000 1.000000
v 0.000000 -2.000000 1.000000
v 0.000000 -1.000000 1.000000
v 1.000000 -1.000000 1.000000
v 1.000000 -2.000000 1.000000
v 2.000000 -2.000000 1.000000
v 2.000000 -1.000000 1.000000
v 0.000000 -1.000000 2.000000
v 0.000000 -2.000000 2.000000
v 1.000000 -2.000000 2.000000
v 1.000000 -1.000000 2.000000
v -2.000000 0.000000 -1.000000
v 2.000000 2.000000 0.000000
v 2.000000 2.000000 1.000000
v -1.000000 -2.000000 0.000000
vt 0.218750 0.093750
vt 0.218750 0.031250
vt 0.250000 0.031250
vt 0.250000 0.093750
vt 0.500000 0.187500
vt 0.500000 0.156250
vt 0.593750 0.156250
vt 0.593750 0.187500
vt 0.468750 0.281250
vt 0.468750 0.250000
vt 0.531250 0.250000
vt 0.531250 0.281250
vt 0.031250 0.375000
vt 0.031250 0.343750
vt 0.093750 0.343750
vt 0.093750 0.375000
vt 0.625000 0.375000
vt 0.625000 0.343750
vt 0.656250 0.343750
vt 0.656250 0.375000
vt 0.343750 0.375000
vt 0.343750 0.343750
vt 0.375000 0.343750
vt 0.375000 0.375000
vt 0.031250 0.468750
vt 0.031250 0.437500
vt 0.062500 0.437500
vt 0.062500 0.468750
vt 0.531250 0.375000
vt 0.531250 0.343750
vt 0.562500 0.343750
vt 0.562500 0.375000
vt 0.437500 0.375000
vt 0.437500 0.343750
vt 0.468750 0.343750
vt 0.468750 0.375000
vt 0.718750 0.375000
vt 0.718750 0.343750
vt 0.750000 0.343750
vt 0.750000 0.375000
vt 0.312500 0.062500
vt 0.312500 0.031250
vt 0.437500 0.031250
vt 0.437500 0.062500
vt 0.875000 0.062500
vt 0.875000 0.031250
vt 0.968750 0.031250
vt 0.968750 0.062500
vt 0.031250 0.187500
vt 0.031250 0.156250
vt 0.125000 0.156250
vt 0.125000 0.187500
vt 0.125000 0.468750
vt 0.125000 0.437500
vt 0.156250 0.437500
vt 0.156250 0.468750
vt 0.812500 0.375000
vt 0.812500 0.343750
vt 0.843750 0.343750
vt 0.843750 0.375000
vt 0.906250 0.375000
vt 0.906250 0.343750
vt 0.937500 0.343750
vt 0.937500 0.375000
vt 0.250000 0.375000
vt 0.250000 0.343750
vt 0.281250 0.343750
vt 0.281250 0.375000
vt 0.156250 0.375000
vt 0.156250 0.343750
vt 0.187500 0.343750
vt 0.187500 0.375000
vt 0.125000 0.093750
vt 0.125000 0.031250
vt 0.156250 0.031250
vt 0.156250 0.093750
vt 0.656250 0.187500
vt 0.656250 0.156250
vt 0.750000 0.156250
vt 0.750000 0.187500
vt 0.718750 0.281250
vt 0.718750 0.250000
vt 0.781250 0.250000
vt 0.781250 0.281250
vt 0.843750 0.281250
vt 0.843750 0.250000
vt 0.906250 0.250000
vt 0.906250 0.281250
vt 0.593750 0.562500
vt 0.593750 0.531250
vt 0.625000 0.531250
vt 0.625000 0.562500
vt 0.687500 0.562500
vt 0.687500 0.531250
vt 0.718750 0.531250
vt 0.718750 0.562500
vt 0.500000 0.562500
vt 0.500000 0.531250
vt 0.531250 0.531250
vt 0.531250 0.562500
vt 0.312500 0.562500
vt 0.312500 0.531250
vt 0.343750 0.531250
vt 0.343750 0.562500
vt 0.406250 0.562500
vt 0.406250 0.531250
vt 0.437500 0.531250
vt 0.437500 0.562500
vt 0.781250 0.562500
vt 0.781250 0.531250
vt 0.812500 0.531250
vt 0.812500 0.562500
vt 0.500000 0.062500
vt 0.500000 0.031250
vt 0.625000 0.031250
vt 0.625000 0.062500
vt 0.031250 0.281250
vt 0.031250 0.250000
vt 0.125000 0.250000
vt 0.125000 0.281250
vt 0.812500 0.187500
vt 0.812500 0.156250
vt 0.906250 0.156250
vt 0.906250 0.187500
vt 0.218750 0.656250
vt 0.218750 0.625000
vt 0.250000 0.625000
vt 0.250000 0.656250
vt 0.312500 0.656250
vt 0.312500 0.625000
vt 0.343750 0.625000
vt 0.343750 0.656250
vt 0.125000 0.656250
vt 0.125000 0.625000
vt 0.156250 0.625000
vt 0.156250 0.656250
vt 0.875000 0.562500
vt 0.875000 0.531250
vt 0.906250 0.531250
vt 0.906250 0.562500
vt 0.031250 0.656250
vt 0.031250 0.625000
vt 0.062500 0.625000
vt 0.062500 0.656250
vt 0.343750 0.187500
vt 0.343750 0.156250
vt 0.437500 0.156250
vt 0.437500 0.187500
vt 0.687500 0.062500
vt 0.687500 0.031250
vt 0.812500 0.031250
vt 0.812500 0.062500
vt 0.187500 0.187500
vt 0.187500 0.156250
vt 0.281250 0.156250
vt 0.281250 0.187500
vt 0.500000 0.468750
vt 0.500000 0.437500
vt 0.531250 0.437500
vt 0.531250 0.468750
vt 0.593750 0.468750
vt 0.593750 0.437500
vt 0.625000 0.437500
vt 0.625000 0.468750
vt 0.406250 0.468750
vt 0.406250 0.437500
vt 0.437500 0.437500
vt 0.437500 0.468750
vt 0.218750 0.468750
vt 0.218750 0.437500
vt 0.250000 0.437500
vt 0.250000 0.468750
vt 0.312500 0.468750
vt 0.312500 0.437500
vt 0.343750 0.437500
vt 0.343750 0.468750
vt 0.031250 0.093750
vt 0.031250 0.031250
vt 0.062500 0.031250
vt 0.062500 0.093750
vt 0.187500 0.281250
vt 0.187500 0.250000
vt 0.281250 0.250000
vt 0.281250 0.281250
vt 0.343750 0.281250
vt 0.343750 0.250000
vt 0.406250 0.250000
vt 0.406250 0.281250
vt 0.593750 0.281250
vt 0.593750 0.250000
vt 0.656250 0.250000
vt 0.656250 0.281250
vt 0.687500 0.468750
vt 0.687500 0.437500
vt 0.718750 0.437500
vt 0.718750 0.468750
vt 0.125000 0.562500
vt 0.125000 0.531250
vt 0.156250 0.531250
vt 0.156250 0.562500
vt 0.218750 0.562500
vt 0.218750 0.531250
vt 0.250000 0.531250
vt 0.250000 0.562500
vt 0.031250 0.562500
vt 0.031250 0.531250
vt 0.062500 0.531250
vt 0.062500 0.562500
vt 0.781250 0.468750
vt 0.781250 0.437500
vt 0.812500 0.437500
vt 0.812500 0.468750
vt 0.875000 0.468750
vt 0.875000 0.437500
vt 0.906250 0.437500
vt 0.906250 0.468750
vn 0.000000 0.000000 -1.000000
vn 0.000000 0.000000 -1.000000
vn 0.000000 0.000000 -1.000000
vn 0.000000 0.000000 -1.000000
vn 0.000000 0.000000 -1.000000
vn 0.000000 0.000000 -1.000000
vn 0.000000 0.000000 -1.000000
vn 0.000000 0.000000 -1.000000
vn 0.000000 0.000000 -1.000000
vn 0.000000 0.000000 -1.000000
vn 0.000000 0.000000 -1.000000
vn 0.000000 0.000000 -1.000000
vn 0.000000 0.000000 -1.000000
vn 0.000000 0.000000 -1.000000
vn 0.000000 0.000000 -1.000000
vn 0.000000 0.000000 -1.000000
vn 0.000000 0.000000 -1.000000
vn 0.000000 0.000000 -1.000000
vn 0.000000 0.000000 -1.000000
vn 0.000000 0.000000 -1.000000
vn 0.000000 0.000000 -1.000000
vn 0.000000 0.000000 -1.000000
vn 0.000000 0.000000 -1.000000
vn 0.000000 0.000000 -1.000000
vn 0.000000 0.000000 -1.000000
vn 0.000000 0.000000 -1.000000
vn 0.000000 0.000000 -1.000000
vn 0.000000 0.000000 -1.000000
vn 0.000000 0.000000 -1.000000
vn 0.000000 0.000000 -1.000000
vn 0.000000 0.000000 -1.000000
vn 0.000000 0.000000 -1.000000
vn 0.000000 0.000000 -1.000000
vn 0.000000 0.000000 -1.000000
vn 0.000000 0.000000 -1.000000
vn 0.000000 0.000000 -1.000000
vn 0.000000 0.000000 -1.000000
vn 0.000000 0.000000 -1.000000
vn 0.000000 0.000000 -1.000000
vn 0.000000 0.000000 -1.000000
vn 0.000000 0.000000 1.000000
vn 0.000000 0.000000 1.000000
vn 0.000000 0.000000 1.000000
vn 0.000000 0.000000 1.000000
vn 0.000000 0.000000 1.000000
vn 0.000000 0.000000 1.000000
vn 0.000000 0.000000 1.000000
vn 0.000000 0.000000 1.000000
vn 0.000000 0.000000 1.000000
vn 0.000000 0.000000 1.000000
vn 0.000000 0.000000 1.000000
vn 0.000000 0.000000 1.000000
vn 0.000000 0.000000 1.000000
vn 0.000000 0.000000 1.000000
vn 0.000000 0.000000 1.000000
vn 0.000000 0.000000 1.000000
vn 0.000000 0.000000 1.000000
vn 0.000000 0.000000 1.000000
vn 0.000000 0.000000 1.000000
vn 0.000000 0.000000 1.000000
vn 0.000000 0.000000 1.000000
vn 0.000000 0.000000 1.000000
vn 0.000000 0.000000 1.000000
vn 0.000000 0.000000 1.000000
vn 0.000000 0.000000 1.000000
vn 0.000000 0.000000 1.000000
vn 0.000000 0.000000 1.000000
vn 0.000000 0.000000 1.000000
vn 0.000000 0.000000 1.000000
vn 0.000000 0.000000 1.000000
vn 0.000000 0.000000 1.000000
vn 0.000000 0.000000 1.000000
vn -1.000000 0.000000 0.000000
vn -1.000000 0.000000 0.000000
vn -1.000000 0.000000 0.000000
vn -1.000000 0.000000 0.000000
vn -1.000000 0.000000 0.000000
vn -1.000000 0.000000 0.000000
vn -1.000000 0.000000 0.000000
vn -1.000000 0.000000 0.000000
vn -1.000000 0.000000 0.000000
vn -1.000000 0.000000 0.000000
vn -1.000000 0.000000 0.000000
vn -1.000000 0.000000 0.000000
vn -1.000000 0.000000 0.000000
vn -1.000000 0.000000 0.000000
vn -1.000000 0.000000 0.000000
vn -1.000000 0.000000 0.000000
vn -1.000000 0.000000 0.000000
vn -1.000000 0.000000 0.000000
vn -1.000000 0.000000 0.000000
vn -1.000000 0.000000 0.000000
vn -1.000000 0.000000 0.000000
vn -1.000000 0.000000 0.000000
vn -1.000000 0.000000 0.000000
vn -1.000000 0.000000 0.000000
vn -1.000000 0.000000 0.000000
vn -1.000000 0.000000 0.000000
vn -1.000000 0.000000 0.000000
vn -1.000000 0.000000 0.000000
vn -1.000000 0.000000 0.000000
vn -1.000000 0.000000 0.000000
vn -1.000000 0.000000 0.000000
vn -1.000000 0.000000 0.000000
vn -1.000000 0.000000 0.000000
vn -1.000000 0.000000 0.000000
vn -1.000000 0.000000 0.000000
vn -1.000000 0.000000 0.000000
vn -1.000000 0.000000 0.000000
vn -1.000000 0.000000 0.000000
vn -1.000000 0.000000 0.000000
vn -1.000000 0.000000 0.000000
vn 1.000000 0.000000 0.000000
vn 1.000000 0.000000 0.000000
vn 1.000000 0.000000 0.000000
vn 1.000000 0.000000 0.000000
vn 1.000000 0.000000 0.000000
vn 1.000000 0.000000 0.000000
vn 1.000000 0.000000 0.000000
vn 1.000000 0.000000 0.000000
vn 1.000000 0.000000 0.000000
vn 1.000000 0.000000 0.000000
vn 1.000000 0.000000 0.000000
vn 1.000000 0.000000 0.000000
vn 1.000000 0.000000 0.000000
vn 1.000000 0.000000 0.000000
vn 1.000000 0.000000 0.000000
vn 1.000000 0.000000 0.000000
vn 1.000000 0.000000 0.000000
vn 1.000000 0.000000 0.000000
vn 1.000000 0.000000 0.000000
vn 1.000000 0.000000 0.000000
vn 1.000000 0.000000 0.000000
vn 1.000000 0.000000 0.000000
vn 1.000000 0.000000 0.000000
vn 1.000000 0.000000 0.000000
vn 1.000000 0.000000 0.000000
vn 1.000000 0.000000 0.000000
vn 1.000000 0.000000 0.000000
vn 1.000000 0.000000 0.000000
vn 1.000000 0.000000 0.000000
vn 1.000000 0.000000 0.000000
vn 1.000000 0.000000 0.000000
vn 1.000000 0.000000 0.000000
vn 0.000000 1.000000 0.000000
vn 0.000000 1.000000 0.000000
vn 0.000000 1.000000 0.000000
vn 0.000000 1.000000 0.000000
vn 0.000000 1.000000 0.000000
vn 0.000000 1.000000 0.000000
vn 0.000000 1.000000 0.000000
vn 0.000000 1.000000 0.000000
vn 0.000000 1.000000 0.000000
vn 0.000000 1.000000 0.000000
vn 0.000000 1.000000 0.000000
vn 0.000000 1.000000 0.000000
vn 0.000000 1.000000 0.000000
vn 0.000000 1.000000 0.000000
vn 0.000000 1.000000 0.000000
vn 0.000000 1.000000 0.000000
vn 0.000000 1.000000 0.000000
vn 0.000000 1.000000 0.000000
vn 0.000000 1.000000 0.000000
vn 0.000000 1.000000 0.000000
vn 0.000000 1.000000 0.000000
vn 0.000000 1.000000 0.000000
vn 0.000000 1.000000 0.000000
vn 0.000000 1.000000 0.000000
vn 0.000000 1.000000 0.000000
vn 0.000000 1.000000 0.000000
vn 0.000000 1.000000 0.000000
vn 0.000000 1.000000 0.000000
vn 0.000000 1.000000 0.000000
vn 0.000000 1.000000 0.000000
vn 0.000000 1.000000 0.000000
vn 0.000000 1.000000 0.000000
vn 0.000000 -1.000000 0.000000
vn 0.000000 -1.000000 0.000000
vn 0.000000 -1.000000 0.000000
vn 0.000000 -1.000000 0.000000
vn 0.000000 -1.000000 0.000000
vn 0.000000 -1.000000 0.000000
vn 0.000000 -1.000000 0.000000
vn 0.000000 -1.000000 0.000000
vn 0.000000 -1.000000 0.000000
vn 0.000000 -1.000000 0.000000
vn 0.000000 -1.000000 0.000000
vn 0.000000 -1.000000 0.000000
vn 0.000000 -1.000000 0.000000
vn 0.000000 -1.000000 0.000000
vn 0.000000 -1.000000 0.000000
vn 0.000000 -1.000000 0.000000
vn 0.000000 -1.000000 0.000000
vn 0.000000 -1.000000 0.000000
vn 0.000000 -1.000000 0.000000
vn 0.000000 -1.000000 0.000000
vn 0.000000 -1.000000 0.000000
vn 0.000000 -1.000000 0.000000
vn 0.000000 -1.000000 0.000000
vn 0.000000 -1.000000 0.000000
vn 0.000000 -1.000000 0.000000
vn 0.000000 -1.000000 0.000000
vn 0.000000 -1.000000 0.000000
vn 0.000000 -1.000000 0.000000
vn 0.000000 -1.000000 0.000000
vn 0.000000 -1.000000 0.000000
vn 0.000000 -1.000000 0.000000
vn 0.000000 -1.000000 0.000000
vn 0.000000 -1.000000 0.000000
vn 0.000000 -1.000000 0.000000
vn 0.000000 -1.000000 0.000000
vn 0.000000 -1.000000 0.000000
vn 0.000000 -1.000000 0.000000
vn 0.000000 -1.000000 0.000000
vn 0.000000 -1.000000 0.000000
vn 0.000000 -1.000000 0.000000
s off
g Moon
usemtl initialShadingGroup
f 1/1/1 2/2/2 3/3/3 4/4/4
f 5/5/5 6/6/6 7/7/7 8/8/8
f 9/9/9 10/10/10 11/11/11 7/12/12
f 12/13/13 13/14/14 14/15/15 2/16/16
f 15/17/17 16/18/18 17/19/19 18/20/20
f 19/21/21 20/22/22 1/23/23 21/24/24
f 22/25/25 23/26/26 12/27/27 24/28/28
f 25/29/29 26/30/30 27/31/31 28/32/32
f 29/33/33 30/34/34 31/35/35 32/36/36
f 33/37/37 34/38/38 35/39/39 36/40/40
f 37/41/41 38/42/42 39/43/43 40/44/44
f 41/45/45 42/46/46 43/47/47 39/48/48
f 44/49/49 45/50/50 40/51/51 46/52/52
f 47/53/53 48/54/54 49/55/55 50/56/56
f 51/57/57 52/58/58 53/59/59 54/60/60
f 49/61/61 55/62/62 56/63/63 57/64/64
f 58/65/65 59/66/66 60/67/67 61/68/68
f 62/69/69 63/70/70 64/71/71 65/72/72
f 8/73/73 11/74/74 2/75/75 1/76/76
f 4/77/77 66/78/78 38/79/79 37/80/80
f 66/81/81 3/82/82 48/83/83 47/84/84
f 2/85/85 14/86/86 55/87/87 49/88/88
f 18/89/89 17/90/90 20/91/91 19/92/92
f 21/93/93 1/94/94 30/95/95 29/96/96
f 32/97/97 31/98/98 52/99/99 51/100/100
f 50/101/101 49/102/102 42/103/103 41/104/104
f 54/105/105 53/106/106 45/107/107 44/108/108
f 57/109/109 56/110/110 63/111/111 62/112/112
f 40/113/113 39/114/114 6/115/115 5/116/116
f 39/117/117 43/118/118 23/119/119 22/120/120
f 46/121/121 40/122/122 26/123/123 25/124/124
f 24/125/125 12/126/126 10/127/127 9/128/128
f 28/129/129 27/130/130 16/131/131 15/132/132
f 36/133/133 35/134/134 13/135/135 12/136/136
f 61/137/137 60/138/138 34/139/139 33/140/140
f 65/141/141 64/142/142 59/143/143 58/144/144
f 21/145/145 29/146/146 67/147/147 25/148/148
f 32/149/149 51/150/150 68/151/151 67/152/152
f 54/153/153 44/154/154 46/155/155 68/156/156
f 8/157/157 1/158/158 20/159/159 17/160/160
f 18/161/161 19/162/162 28/163/163 15/164/164
f 16/165/165 27/166/166 26/167/167 5/168/168
f 4/169/169 31/170/170 30/171/171 1/172/172
f 52/173/173 37/174/174 45/175/175 53/176/176
f 48/177/177 3/178/178 2/179/179 49/180/180
f 55/181/181 69/182/182 34/183/183 60/184/184
f 2/185/185 11/186/186 10/187/187 12/188/188
f 69/189/189 14/190/190 13/191/191 35/192/192
f 24/193/193 9/194/194 6/195/195 22/196/196
f 36/197/197 12/198/198 23/199/199 33/200/200
f 38/201/201 47/202/202 50/203/203 41/204/204
f 42/205/205 49/206/206 57/207/207 62/208/208
f 63/209/209 56/210/210 59/211/211 64/212/212
f 65/213/213 58/214/214 61/215/215 43/216/216
