# This file uses centimeters as units for non-parametric coordinates.

mtllib PointyArrow.mtl
g default
v 0.040483 0.019877 -0.014055
v 0.081698 0.000000 0.000000
v 0.040483 0.019877 0.014055
v 1.397758 0.017700 0.459391
v 1.384695 0.017700 0.480745
v 1.326430 0.000000 0.430430
v 0.040483 0.137364 0.014055
v 0.081698 0.157240 0.000000
v 0.040483 0.137364 -0.014055
v 1.326430 0.157240 0.430430
v 1.384695 0.139540 0.480745
v 1.397758 0.139540 0.459391
v 1.384695 0.139540 -0.480745
v 1.326430 0.157240 -0.430430
v 1.397758 0.139540 -0.459391
v 1.326430 0.000000 -0.430430
v 1.384695 0.017700 -0.480745
v 1.397758 0.017700 -0.459391
v 0.935147 0.133657 0.016313
v 0.935147 0.133657 -0.016313
v 0.884763 0.157240 0.000000
v 0.935147 0.023584 -0.016313
v 0.935147 0.023584 0.016313
v 0.884763 0.000000 0.000000
vt 0.337463 0.276470
vt 0.406855 0.779849
vt 0.285459 0.014176
vt 0.625000 0.989848
vt 0.615267 0.981095
vt 0.625000 0.879078
vt 0.635152 0.028142
vt 0.339626 0.276380
vt 0.613970 0.224349
vt 0.625000 0.260152
vt 0.617386 0.531335
vt 0.616625 0.725370
vt 0.612181 0.479908
vt 0.625000 0.379078
vt 0.625000 0.760152
vt 0.754078 0.212504
vt 0.745922 0.037496
vt 0.286409 0.052405
vt 0.613970 0.030633
vt 0.612181 0.264693
vt 0.614595 0.372809
vt 0.364063 0.320059
vt 0.355342 0.386457
vt 0.616625 0.531654
vt 0.615267 0.765880
vt 0.617100 0.873772
vt 0.426872 0.844203
vt 0.745922 0.212504
vt 0.864848 0.221858
vt 0.754078 0.037496
vt 0.864848 0.028142
vt 0.284247 0.052495
vt 0.594442 0.001276
vt 0.635152 0.221858
vt 0.625000 0.489848
vt 0.617386 0.725051
vt 0.625000 0.370922
vt 0.625000 0.375000
vt 0.625000 0.870922
vt 0.625000 0.875000
vn -1.000000 0.000000 0.000000
vn -1.000000 0.000000 0.000000
vn -1.000000 0.000000 0.000000
vn -1.000000 0.000000 0.000000
vn -0.184879 -0.826619 -0.531527
vn -0.184879 -0.826619 -0.531527
vn -0.184879 -0.826619 -0.531527
vn -0.184879 -0.826619 -0.531527
vn -0.184879 -0.826619 0.531527
vn -0.184879 -0.826619 0.531527
vn -0.184879 -0.826619 0.531527
vn -0.184879 -0.826619 0.531527
vn 0.432926 -0.779091 -0.453423
vn 0.432926 -0.779091 -0.453423
vn 0.432926 -0.779091 -0.453423
vn 0.432926 -0.779091 -0.453423
vn 0.853047 0.000000 0.521834
vn 0.853047 0.000000 0.521834
vn 0.853047 0.000000 0.521834
vn 0.853047 0.000000 0.521834
vn -0.184879 0.826620 0.531525
vn -0.184879 0.826620 0.531525
vn -0.184879 0.826620 0.531525
vn -0.184879 0.826620 0.531525
vn -0.184879 0.826620 -0.531525
vn -0.184879 0.826620 -0.531525
vn -0.184879 0.826620 -0.531525
vn -0.184879 0.826620 -0.531525
vn 0.432926 0.779091 -0.453423
vn 0.432926 0.779091 -0.453423
vn 0.432926 0.779091 -0.453423
vn 0.432926 0.779091 -0.453423
vn 0.853047 0.000000 -0.521834
vn 0.853047 0.000000 -0.521834
vn 0.853047 0.000000 -0.521834
vn 0.853047 0.000000 -0.521834
vn 0.432926 0.779091 0.453423
vn 0.432926 0.779091 0.453423
vn 0.432926 0.779091 0.453423
vn 0.432926 0.779091 0.453423
vn 0.432926 -0.779091 0.453423
vn 0.432926 -0.779091 0.453423
vn 0.432926 -0.779091 0.453423
vn 0.432926 -0.779091 0.453423
vn 1.000000 0.000000 0.000000
vn 1.000000 0.000000 0.000000
vn 1.000000 0.000000 0.000000
vn 1.000000 0.000000 0.000000
vn -0.327980 0.000000 0.944685
vn -0.327980 0.000000 0.944685
vn -0.327980 0.000000 0.944685
vn -0.327980 0.000000 0.944685
vn 0.000000 1.000000 0.000000
vn 0.000000 1.000000 0.000000
vn 0.000000 1.000000 0.000000
vn 0.000000 1.000000 0.000000
vn 0.000000 1.000000 0.000000
vn 0.000000 1.000000 0.000000
vn -0.327980 0.000000 -0.944685
vn -0.327980 0.000000 -0.944685
vn -0.327980 0.000000 -0.944685
vn -0.327980 0.000000 -0.944685
vn 0.000000 -1.000000 0.000000
vn 0.000000 -1.000000 0.000000
vn 0.000000 -1.000000 0.000000
vn 0.000000 -1.000000 0.000000
vn 0.000000 -1.000000 0.000000
vn 0.000000 -1.000000 0.000000
vn 0.691697 0.000000 -0.722188
vn 0.691697 0.000000 -0.722188
vn 0.691697 0.000000 -0.722188
vn 0.691697 0.000000 -0.722188
vn 0.691697 0.000000 0.722188
vn 0.691697 0.000000 0.722188
vn 0.691697 0.000000 0.722188
vn 0.691697 0.000000 0.722188
vn -0.434393 -0.900723 0.000000
vn -0.434393 -0.900723 0.000000
vn -0.434393 -0.900723 0.000000
vn 0.193593 -0.973908 0.118426
vn 0.193593 -0.973908 0.118426
vn 0.193593 -0.973908 0.118426
vn -0.434393 0.900723 0.000000
vn -0.434393 0.900723 0.000000
vn -0.434393 0.900723 0.000000
vn 0.193593 0.973908 0.118426
vn 0.193593 0.973908 0.118426
vn 0.193593 0.973908 0.118426
vn 0.193593 0.973908 -0.118426
vn 0.193593 0.973908 -0.118426
vn 0.193593 0.973908 -0.118426
vn 0.193593 -0.973908 -0.118426
vn 0.193593 -0.973908 -0.118426
vn 0.193593 -0.973908 -0.118426
vn 0.423934 0.905693 0.000000
vn 0.423934 0.905693 0.000000
vn 0.423934 0.905693 0.000000
vn 0.423934 -0.905693 0.000000
vn 0.423934 -0.905693 0.000000
vn 0.423934 -0.905693 0.000000
s off
g pCube1
usemtl initialShadingGroup
f 1/32/1 3/18/2 7/8/3 9/1/4
f 2/27/5 1/2/6 17/12/7 16/25/8
f 3/18/9 2/3/10 6/33/11 5/19/12
f 4/4/13 6/5/14 24/26/15 23/6/16
f 5/19/17 4/7/18 12/34/19 11/9/20
f 8/22/21 7/8/22 11/9/23 10/20/24
f 9/23/25 8/22/26 14/13/27 13/24/28
f 10/20/29 12/10/30 19/37/31 21/21/32
f 13/24/33 15/11/34 18/36/35 17/12/36
f 15/35/37 14/13/38 21/21/39 20/14/40
f 16/25/41 18/15/42 22/39/43 24/26/44
f 20/16/45 19/28/46 23/17/47 22/30/48
f 3/18/49 5/19/50 11/9/51 7/8/52
f 8/22/53 10/20/54 21/21/55
f 8/22/56 21/21/57 14/13/58
f 9/23/59 13/24/60 17/12/61 1/2/62
f 2/27/63 16/25/64 24/26/65
f 2/27/66 24/26/67 6/5/68
f 4/7/69 23/17/70 19/28/71 12/34/72
f 15/29/73 20/16/74 22/30/75 18/31/76
f 1/32/77 2/3/78 3/18/79
f 4/7/80 5/19/81 6/33/82
f 7/8/83 8/22/84 9/1/85
f 10/20/86 11/9/87 12/34/88
f 13/24/89 14/13/90 15/35/91
f 16/25/92 17/12/93 18/36/94
f 19/37/95 20/38/96 21/21/97
f 22/39/98 23/40/99 24/26/100
